<svg xmlns="http://www.w3.org/2000/svg" width="132.731" height="50" viewBox="0 0 132.731 50">
  <g id="Group_72" data-name="Group 72" transform="translate(-49.797 -47.463)">
    <g id="Group_69" data-name="Group 69">
      <rect id="Rectangle_49" data-name="Rectangle 49" width="1.322" height="7.417" transform="translate(49.797 90.046)" fill="#fff"/>
      <path id="Path_209" data-name="Path 209" d="M58.161,95.268l-4.048-5.223H52.868v7.417H54.19V92.241l4.048,5.223h1.244V90.046H58.161Z" fill="#fff"/>
      <path id="Path_210" data-name="Path 210" d="M66.724,90.389a1.248,1.248,0,0,0-.37-.249,1.138,1.138,0,0,0-.456-.094H62.446a1.142,1.142,0,0,0-.456.094,1.261,1.261,0,0,0-.37.249,1.166,1.166,0,0,0-.343.826v2.033a1.15,1.15,0,0,0,.343.826,1.248,1.248,0,0,0,.37.249,1.126,1.126,0,0,0,.456.1h3.3v1.724H62.5v-.913H61.178v1.065a1.161,1.161,0,0,0,.091.454,1.172,1.172,0,0,0,.624.624,1.161,1.161,0,0,0,.454.091H65.9a1.161,1.161,0,0,0,.454-.091,1.172,1.172,0,0,0,.624-.624,1.147,1.147,0,0,0,.091-.454V94.265a1.147,1.147,0,0,0-.091-.454,1.178,1.178,0,0,0-.251-.373,1.164,1.164,0,0,0-.373-.25A1.144,1.144,0,0,0,65.9,93.1H62.6V91.367h3.148v.918h1.321v-1.07a1.155,1.155,0,0,0-.343-.826Z" fill="#fff"/>
      <path id="Path_211" data-name="Path 211" d="M72.86,90.046H68.814v7.417h1.322V94.824H72.86a1.682,1.682,0,0,0,1.879-1.883V91.929A1.682,1.682,0,0,0,72.86,90.046Zm-2.724,1.321h2.67a.506.506,0,0,1,.611.612v.912a.506.506,0,0,1-.611.612h-2.67Z" fill="#fff"/>
      <path id="Path_212" data-name="Path 212" d="M76.305,97.463h5.488V96.142H77.627V94.418h3.556V93.1H77.627V91.367h4.166V90.046H76.305Z" fill="#fff"/>
      <path id="Path_213" data-name="Path 213" d="M89.261,90.389a1.266,1.266,0,0,0-.371-.249,1.137,1.137,0,0,0-.455-.094H84.576a1.138,1.138,0,0,0-.456.094,1.248,1.248,0,0,0-.37.249,1.155,1.155,0,0,0-.343.826v5.079a1.143,1.143,0,0,0,.091.454,1.172,1.172,0,0,0,.624.624,1.161,1.161,0,0,0,.454.091h3.859a1.161,1.161,0,0,0,.454-.091,1.2,1.2,0,0,0,.373-.251,1.181,1.181,0,0,0,.25-.373,1.148,1.148,0,0,0,.092-.454V95.229H88.282v.913H84.728V91.367h3.554v.918H89.6v-1.07a1.166,1.166,0,0,0-.343-.826Z" fill="#fff"/>
      <path id="Path_214" data-name="Path 214" d="M90.984,91.367H93.32v6.1h1.322v-6.1h2.336V90.046H90.984Z" fill="#fff"/>
      <rect id="Rectangle_50" data-name="Rectangle 50" width="1.322" height="7.417" transform="translate(98.45 90.046)" fill="#fff"/>
      <path id="Path_215" data-name="Path 215" d="M107.577,90.389a1.261,1.261,0,0,0-.37-.249,1.138,1.138,0,0,0-.456-.094h-4.062a1.138,1.138,0,0,0-.456.094,1.248,1.248,0,0,0-.37.249,1.155,1.155,0,0,0-.343.826v5.079a1.161,1.161,0,0,0,.091.454,1.172,1.172,0,0,0,.624.624,1.161,1.161,0,0,0,.454.091h4.062a1.161,1.161,0,0,0,.454-.091,1.172,1.172,0,0,0,.624-.624,1.165,1.165,0,0,0,.091-.454V91.215a1.155,1.155,0,0,0-.343-.826Zm-.978.978v4.775h-3.758V91.367Z" fill="#fff"/>
      <path id="Path_216" data-name="Path 216" d="M114.962,95.268l-4.048-5.223h-1.244v7.417h1.322V92.241l4.048,5.223h1.244V90.046h-1.322Z" fill="#fff"/>
      <path id="Path_217" data-name="Path 217" d="M127.312,90.389a1.248,1.248,0,0,0-.37-.249,1.138,1.138,0,0,0-.456-.094h-3.452a1.142,1.142,0,0,0-.456.094,1.261,1.261,0,0,0-.37.249,1.166,1.166,0,0,0-.343.826v2.033a1.149,1.149,0,0,0,.092.455,1.137,1.137,0,0,0,.251.371,1.248,1.248,0,0,0,.37.249,1.126,1.126,0,0,0,.456.1h3.3v1.724h-3.247v-.913h-1.321v1.065a1.161,1.161,0,0,0,.091.454,1.172,1.172,0,0,0,.624.624,1.161,1.161,0,0,0,.454.091h3.551a1.161,1.161,0,0,0,.454-.091,1.172,1.172,0,0,0,.624-.624,1.147,1.147,0,0,0,.091-.454V94.265a1.147,1.147,0,0,0-.091-.454,1.2,1.2,0,0,0-.251-.373,1.165,1.165,0,0,0-.373-.25,1.144,1.144,0,0,0-.454-.092h-3.3V91.367h3.147v.918h1.321v-1.07a1.155,1.155,0,0,0-.343-.826Z" fill="#fff"/>
      <path id="Path_218" data-name="Path 218" d="M129.4,97.463h5.488V96.142h-4.166V94.418h3.556V93.1h-3.556V91.367h4.166V90.046H129.4Z" fill="#fff"/>
      <path id="Path_219" data-name="Path 219" d="M142.428,92.738v-.809a1.682,1.682,0,0,0-1.879-1.883H136.5v7.417h1.322V94.621H139.8l1.32,2.842h1.462l-1.359-2.919A1.624,1.624,0,0,0,142.428,92.738Zm-4.6-1.371h2.67a.506.506,0,0,1,.611.612v.709a.505.505,0,0,1-.611.611h-2.67Z" fill="#fff"/>
      <path id="Path_220" data-name="Path 220" d="M147.077,95.62l-2.107-5.575h-1.419l2.86,7.417h1.33l2.86-7.417h-1.414Z" fill="#fff"/>
      <rect id="Rectangle_51" data-name="Rectangle 51" width="1.322" height="7.417" transform="translate(152.006 90.046)" fill="#fff"/>
      <path id="Path_221" data-name="Path 221" d="M160.93,90.389a1.261,1.261,0,0,0-.37-.249,1.138,1.138,0,0,0-.456-.094h-3.859a1.142,1.142,0,0,0-.456.094,1.261,1.261,0,0,0-.37.249,1.166,1.166,0,0,0-.343.826v5.079a1.144,1.144,0,0,0,.092.454,1.176,1.176,0,0,0,.25.373,1.2,1.2,0,0,0,.373.251,1.161,1.161,0,0,0,.454.091H160.1a1.161,1.161,0,0,0,.454-.091,1.172,1.172,0,0,0,.624-.624,1.165,1.165,0,0,0,.091-.454V95.229h-1.321v.913H156.4V91.367h3.554v.918h1.321v-1.07a1.155,1.155,0,0,0-.343-.826Z" fill="#fff"/>
      <path id="Path_222" data-name="Path 222" d="M162.929,97.463h5.488V96.142H164.25V94.418h3.556V93.1H164.25V91.367h4.166V90.046h-5.488Z" fill="#fff"/>
      <path id="Path_223" data-name="Path 223" d="M175.87,92.285v-1.07a1.161,1.161,0,0,0-.344-.826,1.248,1.248,0,0,0-.37-.249,1.137,1.137,0,0,0-.455-.094h-3.452a1.138,1.138,0,0,0-.456.094,1.248,1.248,0,0,0-.37.249,1.161,1.161,0,0,0-.344.826v2.033a1.161,1.161,0,0,0,.343.826,1.252,1.252,0,0,0,.371.249,1.122,1.122,0,0,0,.456.1h3.3v1.724H171.3v-.913H169.98v1.065a1.144,1.144,0,0,0,.092.454,1.176,1.176,0,0,0,.25.373,1.2,1.2,0,0,0,.373.251,1.161,1.161,0,0,0,.454.091H174.7a1.161,1.161,0,0,0,.454-.091,1.2,1.2,0,0,0,.373-.251,1.181,1.181,0,0,0,.25-.373,1.148,1.148,0,0,0,.092-.454V94.265a1.148,1.148,0,0,0-.092-.454,1.159,1.159,0,0,0-.623-.623,1.151,1.151,0,0,0-.454-.092h-3.3V91.367h3.147v.918Z" fill="#fff"/>
    </g>
    <g id="Group_71" data-name="Group 71">
      <g id="Group_70" data-name="Group 70">
        <path id="Path_224" data-name="Path 224" d="M178.084,49.687a2.2,2.2,0,0,1,.3-1.109,2.166,2.166,0,0,1,.813-.816,2.225,2.225,0,0,1,3.038,3.038,2.22,2.22,0,0,1-.807.809,2.228,2.228,0,0,1-3.052-.825A2.2,2.2,0,0,1,178.084,49.687Zm.485,0a1.735,1.735,0,1,0,.232-.871A1.712,1.712,0,0,0,178.569,49.687Zm2.8-.553a.883.883,0,0,1-.1.433.69.69,0,0,1-.319.282l.574,1.074h-.858l-.431-.947h-.1v.947h-.828V48.335h.861Q181.372,48.335,181.372,49.134Zm-1.236.322h.033a.49.49,0,0,0,.27-.064.246.246,0,0,0,.1-.226.224.224,0,0,0-.081-.2.5.5,0,0,0-.283-.058h-.038Z" fill="#fff"/>
      </g>
      <path id="Path_225" data-name="Path 225" d="M161.565,65.826l14.3-15.867h-11.2L153.794,62.015V49.923h-8.3V81.78h8.3V69.69l10.849,12.054H175.87Z" fill="#fff"/>
      <path id="Path_226" data-name="Path 226" d="M69.409,61.279H58.05V49.905H49.8V81.78H58.05V69.532H69.409V81.78h8.254V49.905H69.409Z" fill="#fff"/>
      <path id="Path_227" data-name="Path 227" d="M120.353,49.817l10.418,11.5V81.78h-8.324V64.544l-2.094-2.313-2.089,2.311V81.78H109.94V61.336Z" fill="#ffbc00"/>
      <path id="Path_228" data-name="Path 228" d="M128.049,53.715l6.906,7.6V81.78h8.324V58.111l-9.6-10.62Z" fill="#ffbc00"/>
      <path id="Path_229" data-name="Path 229" d="M104.513,53.156a10.637,10.637,0,0,0-3.742-2.4,13.189,13.189,0,0,0-4.733-.819H79.881V81.78H96.038a13.181,13.181,0,0,0,4.733-.819,10.381,10.381,0,0,0,6.143-6.154,13.213,13.213,0,0,0,.817-4.72V61.631a13.221,13.221,0,0,0-.817-4.72A10.614,10.614,0,0,0,104.513,53.156Zm-16.307,5.1h7.6a4.714,4.714,0,0,1,1.644.261,2.8,2.8,0,0,1,1.052.67,2.9,2.9,0,0,1,.651,1.081,5.13,5.13,0,0,1,.254,1.693v7.795a3.853,3.853,0,0,1-.879,2.8,3.614,3.614,0,0,1-2.722.9h-7.6Z" fill="#fff"/>
      <path id="Path_230" data-name="Path 230" d="M143.279,53.531v-6.04h-5.5Z" fill="#ffbc00"/>
    </g>
  </g>
</svg>
